<svg width="800" height="227" viewBox="0 0 800 200" xmlns="http://www.w3.org/2000/svg">
  <!-- Fond du manche (aspect bois) -->
  <rect x="3.85%" width="100%" height="100%" fill="#784a0d"/>

  <!-- Nut (barre de tête) -->
  <line x1="3.385%" y1="0%" x2="3.385%" y2="100%" stroke="black" stroke-width="8"/>
  
  <!-- Frettes en couleur acier -->
  <line x1="11.085%" y1="0%" x2="11.085%" y2="100%" stroke="#C0C0C0" stroke-width="2"/>
  <line x1="18.785%" y1="0%" x2="18.785%" y2="100%" stroke="#C0C0C0" stroke-width="2"/>
  <line x1="26.485%" y1="0%" x2="26.485%" y2="100%" stroke="#C0C0C0" stroke-width="2"/>
  <line x1="34.185%" y1="0%" x2="34.185%" y2="100%" stroke="#C0C0C0" stroke-width="2"/>
  <line x1="41.885%" y1="0%" x2="41.885%" y2="100%" stroke="#C0C0C0" stroke-width="2"/>
  <line x1="49.585%" y1="0%" x2="49.585%" y2="100%" stroke="#C0C0C0" stroke-width="2"/>
  <line x1="57.285%" y1="0%" x2="57.285%" y2="100%" stroke="#C0C0C0" stroke-width="2"/>
  <line x1="64.985%" y1="0%" x2="64.985%" y2="100%" stroke="#C0C0C0" stroke-width="2"/>
  <line x1="72.685%" y1="0%" x2="72.685%" y2="100%" stroke="#C0C0C0" stroke-width="2"/>
  <line x1="80.385%" y1="0%" x2="80.385%" y2="100%" stroke="#C0C0C0" stroke-width="2"/>
  <line x1="88.085%" y1="0%" x2="88.085%" y2="100%" stroke="#C0C0C0" stroke-width="2"/>
  <line x1="95.785%" y1="0%" x2="95.785%" y2="100%" stroke="#C0C0C0" stroke-width="2"/>

  <!-- Les repères -->  
  <!-- Définition du dégradé radial pour l'effet enfoncé -->
  <defs>
    <radialGradient id="sunkenGradient" cx="0.5" cy="0.5" r="0.5" fx="0.35" fy="0.35">
      <stop offset="0%" stop-color="#333333" /> <!-- Centre sombre pour la profondeur -->
      <stop offset="70%" stop-color="#000000" /> <!-- Bord noir -->
      <stop offset="100%" stop-color="#444444" /> <!-- Légère lueur autour -->
    </radialGradient>
  </defs>
  <!-- Repères enfoncés -->
  <circle cx="22.635%" cy="50%" r="11" fill="url(#sunkenGradient)" />
  <circle cx="38.035%" cy="50%" r="11" fill="url(#sunkenGradient)" />
  <circle cx="53.435%" cy="50%" r="11" fill="url(#sunkenGradient)" />
  <circle cx="68.835%" cy="50%" r="11" fill="url(#sunkenGradient)" />
  <circle cx="91.935%" cy="32%" r="11" fill="url(#sunkenGradient)" />
  <circle cx="91.935%" cy="67%" r="11" fill="url(#sunkenGradient)" />

  <!-- Cordes de guitare -->
  <!-- Cordes fines en noir -->
  <line x1="0%" y1="4.00%"  x2="100%" y2="4.00%"  stroke="#000000" stroke-width="2"/>
  <line x1="0%" y1="22.40%" x2="100%" y2="22.40%" stroke="#000000" stroke-width="2"/>
  <line x1="0%" y1="40.80%" x2="100%" y2="40.80%" stroke="#000000" stroke-width="2"/>

  <!-- Cordes épaisses en bronze/cuivre -->
  <line x1="0%" y1="59.20%" x2="100%" y2="59.20%" stroke="#B87333" stroke-width="3"/>
  <line x1="0%" y1="77.60%" x2="100%" y2="77.60%" stroke="#B87333" stroke-width="4"/>
  <line x1="0%" y1="96.00%" x2="100%" y2="96.00%" stroke="#B87333" stroke-width="5"/>


</svg>