<svg width="800" height="227" viewBox="0 0 800 200" xmlns="http://www.w3.org/2000/svg">
  <!-- Fond du manche (aspect bois) -->
  <rect x="2%" width="100%" height="100%" fill="#784a0d"/>
  
  <!-- Nut (barre de tête) -->
  <line x1="2%" y1="0%" x2="2%" y2="100%" stroke="black" stroke-width="8"/>
  
  <!-- Frettes en couleur acier -->
  <!--line x1="2%"   y1="0%" x2="2%"   y2="100%" stroke="#C0C0C0" stroke-width="2"-->
  <line x1="7%"   y1="0%" x2="7%"   y2="100%" stroke="#C0C0C0" stroke-width="2"/>
  <line x1="12%"  y1="0%" x2="12%"  y2="100%" stroke="#C0C0C0" stroke-width="2"/>
  <line x1="17%"  y1="0%" x2="17%"  y2="100%" stroke="#C0C0C0" stroke-width="2"/>
  <line x1="22%"  y1="0%" x2="22%"  y2="100%" stroke="#C0C0C0" stroke-width="2"/>
  <line x1="27%"  y1="0%" x2="27%"  y2="100%" stroke="#C0C0C0" stroke-width="2"/>
  <line x1="32%"  y1="0%" x2="32%"  y2="100%" stroke="#C0C0C0" stroke-width="2"/>
  <line x1="37%"  y1="0%" x2="37%"  y2="100%" stroke="#C0C0C0" stroke-width="2"/>
  <line x1="42%"  y1="0%" x2="42%"  y2="100%" stroke="#C0C0C0" stroke-width="2"/>
  <line x1="47%"  y1="0%" x2="47%"  y2="100%" stroke="#C0C0C0" stroke-width="2"/>
  <line x1="52%"  y1="0%" x2="52%"  y2="100%" stroke="#C0C0C0" stroke-width="2"/>
  <line x1="57%"  y1="0%" x2="57%"  y2="100%" stroke="#C0C0C0" stroke-width="2"/>
  <line x1="62%"  y1="0%" x2="62%"  y2="100%" stroke="#C0C0C0" stroke-width="2"/>
  <line x1="67%"  y1="0%" x2="67%"  y2="100%" stroke="#C0C0C0" stroke-width="2"/>
  <line x1="72%"  y1="0%" x2="72%"  y2="100%" stroke="#C0C0C0" stroke-width="2"/>
  <line x1="77%"  y1="0%" x2="77%"  y2="100%" stroke="#C0C0C0" stroke-width="2"/>
  <line x1="82%"  y1="0%" x2="82%"  y2="100%" stroke="#C0C0C0" stroke-width="2"/>
  <line x1="87%"  y1="0%" x2="87%"  y2="100%" stroke="#C0C0C0" stroke-width="2"/>
  <line x1="92%"  y1="0%" x2="92%"  y2="100%" stroke="#C0C0C0" stroke-width="2"/>
  <line x1="97%"  y1="0%" x2="97%"  y2="100%" stroke="#C0C0C0" stroke-width="2"/>
  
  <!-- Les repères -->  
  <!-- Définition du dégradé radial pour l'effet enfoncé -->
  <defs>
    <radialGradient id="sunkenGradient" cx="0.5" cy="0.5" r="0.5" fx="0.35" fy="0.35">
      <stop offset="0%" stop-color="#333333" /> <!-- Centre sombre pour la profondeur -->
      <stop offset="70%" stop-color="#000000" /> <!-- Bord noir -->
      <stop offset="100%" stop-color="#444444" /> <!-- Légère lueur autour -->
    </radialGradient>
  </defs> 
  <!-- Repères enfoncés -->
  <circle cx="14.5%" cy="50%" r="10" fill="url(#sunkenGradient)" />
  <circle cx="24.5%" cy="50%" r="10" fill="url(#sunkenGradient)" />
  <circle cx="34.5%" cy="50%" r="10" fill="url(#sunkenGradient)" />
  <circle cx="44.5%" cy="50%" r="10" fill="url(#sunkenGradient)" />
  <circle cx="59.5%" cy="32%" r="10" fill="url(#sunkenGradient)" />
  <circle cx="59.5%" cy="67%" r="10" fill="url(#sunkenGradient)" />
  <circle cx="74.5%" cy="50%" r="10" fill="url(#sunkenGradient)" />
  <circle cx="84.5%" cy="50%" r="10" fill="url(#sunkenGradient)" />
  <circle cx="94.5%" cy="50%" r="10" fill="url(#sunkenGradient)" />

  <!-- Cordes de guitare -->
  <!-- Cordes fines en noir -->
  <line x1="0%" y1="4.00%"  x2="100%" y2="4.00%"  stroke="#000000" stroke-width="2"/>
  <line x1="0%" y1="22.40%" x2="100%" y2="22.40%" stroke="#000000" stroke-width="2"/>
  <line x1="0%" y1="40.80%" x2="100%" y2="40.80%" stroke="#000000" stroke-width="2"/>

  <!-- Cordes épaisses en bronze/cuivre -->
  <line x1="0%" y1="59.20%" x2="100%" y2="59.20%" stroke="#B87333" stroke-width="3"/>
  <line x1="0%" y1="77.60%" x2="100%" y2="77.60%" stroke="#B87333" stroke-width="4"/>
  <line x1="0%" y1="96.00%" x2="100%" y2="96.00%" stroke="#B87333" stroke-width="5"/>

</svg>